<mxfile host="app.diagrams.net" agent="Mozilla/5.0 (Macintosh; Intel Mac OS X 10_15_7) AppleWebKit/605.1.15 (KHTML, like Gecko) Version/17.3 Safari/605.1.15" version="24.8.4">
  <diagram name="Page-1" id="B6-GkYAuQbZqS3aAFTwq">
    <mxGraphModel dx="1533" dy="549" grid="1" gridSize="10" guides="1" tooltips="1" connect="1" arrows="1" fold="1" page="1" pageScale="1" pageWidth="850" pageHeight="1100" math="0" shadow="0">
      <root>
        <mxCell id="0" />
        <mxCell id="1" parent="0" />
        <mxCell id="mtRcYasuJqLh6qyS6TOP-31" value="" style="rounded=0;whiteSpace=wrap;html=1;" parent="1" vertex="1">
          <mxGeometry x="290" y="1320" width="565" height="450" as="geometry" />
        </mxCell>
        <mxCell id="umVtSfNd9-hBFc_sN82X-30" value="" style="html=1;rounded=0;fontSize=12;exitX=1;exitY=0.5;exitDx=0;exitDy=0;edgeStyle=orthogonalEdgeStyle;shape=link;" parent="1" source="umVtSfNd9-hBFc_sN82X-33" edge="1">
          <mxGeometry relative="1" as="geometry">
            <mxPoint x="390" y="837" as="sourcePoint" />
            <mxPoint x="550" y="836.5999999999999" as="targetPoint" />
            <Array as="points">
              <mxPoint x="380" y="837" />
            </Array>
          </mxGeometry>
        </mxCell>
        <mxCell id="umVtSfNd9-hBFc_sN82X-31" value="N" style="resizable=0;html=1;whiteSpace=wrap;align=right;verticalAlign=bottom;" parent="umVtSfNd9-hBFc_sN82X-30" connectable="0" vertex="1">
          <mxGeometry x="1" relative="1" as="geometry" />
        </mxCell>
        <mxCell id="umVtSfNd9-hBFc_sN82X-20" value="" style="shape=link;html=1;rounded=0;fontSize=12;startSize=8;endSize=8;curved=1;width=-3.333333333333334;" parent="1" edge="1">
          <mxGeometry width="100" relative="1" as="geometry">
            <mxPoint x="1305" y="1226.72" as="sourcePoint" />
            <mxPoint x="1405" y="1226.72" as="targetPoint" />
          </mxGeometry>
        </mxCell>
        <mxCell id="2_08gkzJNAX3xdzMuyzV-307" value="Employee" style="swimlane;fontStyle=0;childLayout=stackLayout;horizontal=1;startSize=26;horizontalStack=0;resizeParent=1;resizeParentMax=0;resizeLast=0;collapsible=1;marginBottom=0;align=center;fontSize=14;" parent="1" vertex="1">
          <mxGeometry x="335" y="1000" width="160" height="116" as="geometry" />
        </mxCell>
        <mxCell id="2_08gkzJNAX3xdzMuyzV-308" value="Salary&lt;span style=&quot;white-space: pre;&quot;&gt;&#x9;&lt;/span&gt;" style="text;strokeColor=none;fillColor=none;spacingLeft=4;spacingRight=4;overflow=hidden;rotatable=0;points=[[0,0.5],[1,0.5]];portConstraint=eastwest;fontSize=12;whiteSpace=wrap;html=1;" parent="2_08gkzJNAX3xdzMuyzV-307" vertex="1">
          <mxGeometry y="26" width="160" height="30" as="geometry" />
        </mxCell>
        <mxCell id="2_08gkzJNAX3xdzMuyzV-309" value="MaritalStatus" style="text;strokeColor=none;fillColor=none;spacingLeft=4;spacingRight=4;overflow=hidden;rotatable=0;points=[[0,0.5],[1,0.5]];portConstraint=eastwest;fontSize=12;whiteSpace=wrap;html=1;" parent="2_08gkzJNAX3xdzMuyzV-307" vertex="1">
          <mxGeometry y="56" width="160" height="30" as="geometry" />
        </mxCell>
        <mxCell id="2_08gkzJNAX3xdzMuyzV-310" value="DateHired" style="text;strokeColor=none;fillColor=none;spacingLeft=4;spacingRight=4;overflow=hidden;rotatable=0;points=[[0,0.5],[1,0.5]];portConstraint=eastwest;fontSize=12;whiteSpace=wrap;html=1;" parent="2_08gkzJNAX3xdzMuyzV-307" vertex="1">
          <mxGeometry y="86" width="160" height="30" as="geometry" />
        </mxCell>
        <mxCell id="mtRcYasuJqLh6qyS6TOP-38" style="edgeStyle=orthogonalEdgeStyle;rounded=0;orthogonalLoop=1;jettySize=auto;html=1;endArrow=block;endFill=0;" parent="1" source="2_08gkzJNAX3xdzMuyzV-321" edge="1">
          <mxGeometry relative="1" as="geometry">
            <mxPoint x="700" y="1100" as="targetPoint" />
          </mxGeometry>
        </mxCell>
        <mxCell id="2_08gkzJNAX3xdzMuyzV-321" value="Volunteer" style="swimlane;fontStyle=0;childLayout=stackLayout;horizontal=1;startSize=26;horizontalStack=0;resizeParent=1;resizeParentMax=0;resizeLast=0;collapsible=1;marginBottom=0;align=center;fontSize=14;" parent="1" vertex="1">
          <mxGeometry x="620" y="1350" width="160" height="120" as="geometry" />
        </mxCell>
        <mxCell id="2_08gkzJNAX3xdzMuyzV-322" value="&lt;div&gt;&lt;div&gt;DateJoined&lt;/div&gt;&lt;/div&gt;&lt;div&gt;&lt;br&gt;&lt;/div&gt;&lt;div&gt;DateRecentlyTrained&lt;/div&gt;&lt;div&gt;&lt;br&gt;&lt;/div&gt;&lt;div&gt;LocationRecentlyTrained&lt;/div&gt;" style="text;strokeColor=none;fillColor=none;spacingLeft=4;spacingRight=4;overflow=hidden;rotatable=0;points=[[0,0.5],[1,0.5]];portConstraint=eastwest;fontSize=12;whiteSpace=wrap;html=1;" parent="2_08gkzJNAX3xdzMuyzV-321" vertex="1">
          <mxGeometry y="26" width="160" height="94" as="geometry" />
        </mxCell>
        <mxCell id="5nNUs4AYX-94V2WKTNdS-28" style="rounded=0;orthogonalLoop=1;jettySize=auto;html=1;fontSize=12;endArrow=none;endFill=0;edgeStyle=orthogonalEdgeStyle;shape=link;" parent="1" source="2_08gkzJNAX3xdzMuyzV-329" target="2_08gkzJNAX3xdzMuyzV-350" edge="1">
          <mxGeometry relative="1" as="geometry">
            <Array as="points">
              <mxPoint x="640" y="1630" />
              <mxPoint x="640" y="1630" />
            </Array>
          </mxGeometry>
        </mxCell>
        <mxCell id="2_08gkzJNAX3xdzMuyzV-329" value="Team" style="swimlane;fontStyle=0;childLayout=stackLayout;horizontal=1;startSize=26;horizontalStack=0;resizeParent=1;resizeParentMax=0;resizeLast=0;collapsible=1;marginBottom=0;align=center;fontSize=14;" parent="1" vertex="1">
          <mxGeometry x="620" y="1644" width="160" height="110" as="geometry" />
        </mxCell>
        <mxCell id="2_08gkzJNAX3xdzMuyzV-330" value="&lt;div&gt;&lt;u&gt;TeamName&lt;/u&gt;&lt;/div&gt;&lt;div&gt;&lt;br&gt;&lt;/div&gt;TeamType&lt;div&gt;&lt;br&gt;&lt;/div&gt;&lt;div&gt;DateFormed&lt;/div&gt;" style="text;strokeColor=none;fillColor=none;spacingLeft=4;spacingRight=4;overflow=hidden;rotatable=0;points=[[0,0.5],[1,0.5]];portConstraint=eastwest;fontSize=12;whiteSpace=wrap;html=1;" parent="2_08gkzJNAX3xdzMuyzV-329" vertex="1">
          <mxGeometry y="26" width="160" height="84" as="geometry" />
        </mxCell>
        <mxCell id="mtRcYasuJqLh6qyS6TOP-21" style="edgeStyle=orthogonalEdgeStyle;rounded=0;orthogonalLoop=1;jettySize=auto;html=1;endArrow=block;endFill=0;" parent="1" edge="1">
          <mxGeometry relative="1" as="geometry">
            <mxPoint x="730" y="1100" as="targetPoint" />
            <mxPoint x="1005" y="1190" as="sourcePoint" />
          </mxGeometry>
        </mxCell>
        <mxCell id="2_08gkzJNAX3xdzMuyzV-335" value="Client" style="swimlane;fontStyle=0;childLayout=stackLayout;horizontal=1;startSize=26;horizontalStack=0;resizeParent=1;resizeParentMax=0;resizeLast=0;collapsible=1;marginBottom=0;align=center;fontSize=14;" parent="1" vertex="1">
          <mxGeometry x="1005" y="1175" width="160" height="110" as="geometry" />
        </mxCell>
        <mxCell id="2_08gkzJNAX3xdzMuyzV-336" value="DoctorName&lt;div&gt;&lt;br&gt;&lt;/div&gt;&lt;div&gt;DoctorPhoneNumber&lt;/div&gt;&lt;div&gt;&lt;br&gt;&lt;/div&gt;&lt;div&gt;DateAssigned&lt;/div&gt;" style="text;strokeColor=none;fillColor=none;spacingLeft=4;spacingRight=4;overflow=hidden;rotatable=0;points=[[0,0.5],[1,0.5]];portConstraint=eastwest;fontSize=12;whiteSpace=wrap;html=1;" parent="2_08gkzJNAX3xdzMuyzV-335" vertex="1">
          <mxGeometry y="26" width="160" height="84" as="geometry" />
        </mxCell>
        <mxCell id="2_08gkzJNAX3xdzMuyzV-337" value="Person" style="swimlane;fontStyle=0;childLayout=stackLayout;horizontal=1;startSize=26;horizontalStack=0;resizeParent=1;resizeParentMax=0;resizeLast=0;collapsible=1;marginBottom=0;align=center;fontSize=14;" parent="1" vertex="1">
          <mxGeometry x="600" y="954" width="160" height="140" as="geometry" />
        </mxCell>
        <mxCell id="2_08gkzJNAX3xdzMuyzV-338" value="&lt;u&gt;SSN&lt;/u&gt;&lt;div&gt;&lt;br&gt;&lt;/div&gt;&lt;div&gt;Name&lt;/div&gt;&lt;div&gt;&lt;br&gt;&lt;/div&gt;&lt;div&gt;Gender&lt;/div&gt;&lt;div&gt;&lt;br&gt;&lt;/div&gt;&lt;div&gt;Profession&lt;/div&gt;" style="text;strokeColor=none;fillColor=none;spacingLeft=4;spacingRight=4;overflow=hidden;rotatable=0;points=[[0,0.5],[1,0.5]];portConstraint=eastwest;fontSize=12;whiteSpace=wrap;html=1;" parent="2_08gkzJNAX3xdzMuyzV-337" vertex="1">
          <mxGeometry y="26" width="160" height="114" as="geometry" />
        </mxCell>
        <mxCell id="umVtSfNd9-hBFc_sN82X-5" style="edgeStyle=none;curved=1;rounded=0;orthogonalLoop=1;jettySize=auto;html=1;fontSize=12;startSize=8;endSize=8;endArrow=none;endFill=0;dashed=1;entryX=1;entryY=0.5;entryDx=0;entryDy=0;" parent="1" source="2_08gkzJNAX3xdzMuyzV-350" target="umVtSfNd9-hBFc_sN82X-6" edge="1">
          <mxGeometry relative="1" as="geometry">
            <mxPoint x="540" y="1550" as="targetPoint" />
          </mxGeometry>
        </mxCell>
        <mxCell id="2_08gkzJNAX3xdzMuyzV-350" value="&lt;font style=&quot;font-size: 14px;&quot;&gt;IsAssignedTo&lt;/font&gt;" style="shape=rhombus;perimeter=rhombusPerimeter;whiteSpace=wrap;html=1;align=center;" parent="1" vertex="1">
          <mxGeometry x="580" y="1520" width="120" height="60" as="geometry" />
        </mxCell>
        <mxCell id="5nNUs4AYX-94V2WKTNdS-26" style="edgeStyle=orthogonalEdgeStyle;rounded=0;orthogonalLoop=1;jettySize=auto;html=1;entryX=0.5;entryY=1;entryDx=0;entryDy=0;fontSize=12;startSize=8;endSize=8;" parent="1" source="2_08gkzJNAX3xdzMuyzV-358" target="2_08gkzJNAX3xdzMuyzV-307" edge="1">
          <mxGeometry relative="1" as="geometry">
            <Array as="points">
              <mxPoint x="195" y="1230" />
              <mxPoint x="415" y="1230" />
            </Array>
          </mxGeometry>
        </mxCell>
        <mxCell id="2_08gkzJNAX3xdzMuyzV-358" value="&lt;font style=&quot;font-size: 14px;&quot;&gt;ReportsTo&lt;/font&gt;" style="shape=rhombus;perimeter=rhombusPerimeter;whiteSpace=wrap;html=1;align=center;" parent="1" vertex="1">
          <mxGeometry x="135" y="1682" width="120" height="60" as="geometry" />
        </mxCell>
        <mxCell id="2_08gkzJNAX3xdzMuyzV-384" value="Cares For" style="shape=rhombus;perimeter=rhombusPerimeter;whiteSpace=wrap;html=1;align=center;" parent="1" vertex="1">
          <mxGeometry x="905" y="1640" width="85" height="60" as="geometry" />
        </mxCell>
        <mxCell id="2_08gkzJNAX3xdzMuyzV-401" style="edgeStyle=orthogonalEdgeStyle;rounded=0;orthogonalLoop=1;jettySize=auto;html=1;entryX=0.496;entryY=1.006;entryDx=0;entryDy=0;entryPerimeter=0;endArrow=classic;endFill=1;" parent="1" target="2_08gkzJNAX3xdzMuyzV-336" edge="1">
          <mxGeometry relative="1" as="geometry">
            <mxPoint x="1085" y="1330" as="sourcePoint" />
            <Array as="points">
              <mxPoint x="1084" y="1330" />
            </Array>
          </mxGeometry>
        </mxCell>
        <mxCell id="2_08gkzJNAX3xdzMuyzV-404" style="edgeStyle=orthogonalEdgeStyle;rounded=0;orthogonalLoop=1;jettySize=auto;html=1;entryX=1.006;entryY=0.31;entryDx=0;entryDy=0;entryPerimeter=0;" parent="1" target="2_08gkzJNAX3xdzMuyzV-336" edge="1">
          <mxGeometry relative="1" as="geometry">
            <mxPoint x="1245.0799999999995" y="1227.0399999999997" as="sourcePoint" />
          </mxGeometry>
        </mxCell>
        <mxCell id="umVtSfNd9-hBFc_sN82X-6" value="&lt;div style=&quot;font-size: 14px;&quot;&gt;&lt;div&gt;IsActive, IsLeader&lt;/div&gt;&lt;/div&gt;" style="rounded=0;whiteSpace=wrap;html=1;" parent="1" vertex="1">
          <mxGeometry x="410" y="1520" width="130" height="50" as="geometry" />
        </mxCell>
        <mxCell id="umVtSfNd9-hBFc_sN82X-13" style="edgeStyle=none;curved=1;rounded=0;orthogonalLoop=1;jettySize=auto;html=1;entryX=0;entryY=0.5;entryDx=0;entryDy=0;fontSize=12;startSize=8;endSize=8;endArrow=none;endFill=0;dashed=1;" parent="1" target="2_08gkzJNAX3xdzMuyzV-358" edge="1">
          <mxGeometry relative="1" as="geometry">
            <mxPoint x="70" y="1712" as="sourcePoint" />
          </mxGeometry>
        </mxCell>
        <mxCell id="umVtSfNd9-hBFc_sN82X-12" value="&lt;font style=&quot;font-size: 14px;&quot;&gt;Date, Description&lt;/font&gt;" style="rounded=0;whiteSpace=wrap;html=1;" parent="1" vertex="1">
          <mxGeometry x="-30" y="1682" width="130" height="48" as="geometry" />
        </mxCell>
        <mxCell id="umVtSfNd9-hBFc_sN82X-19" value="" style="group" parent="1" vertex="1" connectable="0">
          <mxGeometry x="1355" y="1170" width="160" height="120" as="geometry" />
        </mxCell>
        <mxCell id="umVtSfNd9-hBFc_sN82X-17" value="&lt;div&gt;&lt;span style=&quot;font-size: 14px; white-space: nowrap;&quot;&gt;&lt;br&gt;&lt;/span&gt;&lt;/div&gt;&lt;span style=&quot;font-size: 14px; white-space: nowrap;&quot;&gt;ClientNeed&lt;/span&gt;&lt;div&gt;&lt;br&gt;&lt;div&gt;&lt;span style=&quot;text-align: left;&quot;&gt;&lt;br&gt;&lt;/span&gt;&lt;/div&gt;&lt;div&gt;&lt;span style=&quot;text-align: left;&quot;&gt;&lt;u&gt;NeedSpecification&lt;/u&gt;&lt;/span&gt;&lt;div style=&quot;text-align: left;&quot;&gt;&lt;br&gt;&lt;/div&gt;&lt;div style=&quot;text-align: left;&quot;&gt;&lt;span style=&quot;white-space: pre;&quot;&gt;LevelOfImportance&lt;/span&gt;&lt;/div&gt;&lt;/div&gt;&lt;div&gt;&lt;span style=&quot;font-size: 14px; white-space: nowrap;&quot;&gt;&lt;br&gt;&lt;/span&gt;&lt;/div&gt;&lt;/div&gt;" style="shape=ext;margin=3;double=1;whiteSpace=wrap;html=1;align=center;" parent="umVtSfNd9-hBFc_sN82X-19" vertex="1">
          <mxGeometry width="160" height="120" as="geometry" />
        </mxCell>
        <mxCell id="umVtSfNd9-hBFc_sN82X-18" value="" style="line;strokeWidth=1;rotatable=1;dashed=0;labelPosition=right;align=left;verticalAlign=middle;spacingTop=0;spacingLeft=6;points=[];portConstraint=eastwest;container=1;movable=1;resizable=1;deletable=1;editable=1;locked=0;connectable=1;" parent="umVtSfNd9-hBFc_sN82X-19" vertex="1">
          <mxGeometry y="40" width="160" height="10" as="geometry" />
        </mxCell>
        <mxCell id="umVtSfNd9-hBFc_sN82X-21" value="Has Need" style="shape=rhombus;double=1;perimeter=rhombusPerimeter;whiteSpace=wrap;html=1;align=center;" parent="1" vertex="1">
          <mxGeometry x="1220" y="1200" width="100" height="57" as="geometry" />
        </mxCell>
        <mxCell id="umVtSfNd9-hBFc_sN82X-28" value="Makes A" style="shape=rhombus;double=1;perimeter=rhombusPerimeter;whiteSpace=wrap;html=1;align=center;" parent="1" vertex="1">
          <mxGeometry x="470" y="807" width="120" height="60" as="geometry" />
        </mxCell>
        <mxCell id="umVtSfNd9-hBFc_sN82X-32" value="" style="group" parent="1" vertex="1" connectable="0">
          <mxGeometry x="-310" y="1390" width="160" height="220" as="geometry" />
        </mxCell>
        <mxCell id="umVtSfNd9-hBFc_sN82X-33" value="&lt;span style=&quot;font-size: 14px; white-space: nowrap;&quot;&gt;Donation&lt;/span&gt;&lt;div style=&quot;text-align: left;&quot;&gt;&lt;br&gt;&lt;/div&gt;&lt;div style=&quot;text-align: left;&quot;&gt;&lt;u&gt;DonationDate&lt;/u&gt;&lt;/div&gt;&lt;div&gt;&lt;div&gt;&lt;div style=&quot;text-align: left;&quot;&gt;&lt;br&gt;&lt;/div&gt;&lt;div style=&quot;text-align: left;&quot;&gt;&lt;u&gt;DonationType&lt;/u&gt;&lt;/div&gt;&lt;div style=&quot;text-align: left;&quot;&gt;&lt;br&gt;&lt;/div&gt;&lt;div style=&quot;text-align: left;&quot;&gt;&lt;u&gt;CampaignName&lt;/u&gt;&lt;/div&gt;&lt;/div&gt;&lt;/div&gt;&lt;div style=&quot;text-align: left;&quot;&gt;&lt;u&gt;&lt;br&gt;&lt;/u&gt;&lt;/div&gt;&lt;div style=&quot;text-align: left;&quot;&gt;DonationAmount&lt;/div&gt;" style="shape=ext;margin=3;double=1;whiteSpace=wrap;html=1;align=center;" parent="umVtSfNd9-hBFc_sN82X-32" vertex="1">
          <mxGeometry x="530" y="-630" width="160" height="150" as="geometry" />
        </mxCell>
        <mxCell id="umVtSfNd9-hBFc_sN82X-34" value="" style="line;strokeWidth=1;rotatable=1;dashed=0;labelPosition=right;align=left;verticalAlign=middle;spacingTop=0;spacingLeft=6;points=[];portConstraint=eastwest;container=1;movable=1;resizable=1;deletable=1;editable=1;locked=0;connectable=1;" parent="umVtSfNd9-hBFc_sN82X-32" vertex="1">
          <mxGeometry x="530" y="-599.6551724137931" width="160" height="7.586206896551724" as="geometry" />
        </mxCell>
        <mxCell id="umVtSfNd9-hBFc_sN82X-39" value="" style="group" parent="1" vertex="1" connectable="0">
          <mxGeometry x="-80" y="990" width="160" height="290" as="geometry" />
        </mxCell>
        <mxCell id="umVtSfNd9-hBFc_sN82X-40" value="&lt;div&gt;&lt;span style=&quot;font-size: 14px; text-wrap: nowrap;&quot;&gt;Expense&lt;/span&gt;&lt;/div&gt;&lt;div&gt;&lt;span style=&quot;font-size: 14px; text-wrap: nowrap;&quot;&gt;&lt;br&gt;&lt;/span&gt;&lt;/div&gt;&lt;div style=&quot;text-align: left;&quot;&gt;&lt;u&gt;ExpenseDate&lt;/u&gt;&lt;span style=&quot;font-size: 14px; text-wrap: nowrap;&quot;&gt;&lt;br&gt;&lt;/span&gt;&lt;/div&gt;&lt;div style=&quot;text-align: left;&quot;&gt;&lt;br&gt;&lt;/div&gt;&lt;div style=&quot;text-align: left;&quot;&gt;ExpenseAmount&lt;br&gt;&lt;/div&gt;&lt;div style=&quot;text-align: left;&quot;&gt;&lt;br&gt;&lt;/div&gt;&lt;div style=&quot;text-align: left;&quot;&gt;ExpenseDescription&lt;br&gt;&lt;/div&gt;" style="shape=ext;margin=3;double=1;whiteSpace=wrap;html=1;align=center;" parent="umVtSfNd9-hBFc_sN82X-39" vertex="1">
          <mxGeometry width="160" height="140" as="geometry" />
        </mxCell>
        <mxCell id="umVtSfNd9-hBFc_sN82X-41" value="" style="line;strokeWidth=1;rotatable=1;dashed=0;labelPosition=right;align=left;verticalAlign=middle;spacingTop=0;spacingLeft=6;points=[];portConstraint=eastwest;container=1;movable=1;resizable=1;deletable=1;editable=1;locked=0;connectable=1;" parent="umVtSfNd9-hBFc_sN82X-39" vertex="1">
          <mxGeometry y="40" width="160" height="10" as="geometry" />
        </mxCell>
        <mxCell id="5nNUs4AYX-94V2WKTNdS-1" value="" style="group" parent="1" vertex="1" connectable="0">
          <mxGeometry x="1000" y="990" width="160" height="120" as="geometry" />
        </mxCell>
        <mxCell id="mtRcYasuJqLh6qyS6TOP-43" value="" style="group" parent="5nNUs4AYX-94V2WKTNdS-1" vertex="1" connectable="0">
          <mxGeometry width="160" height="140" as="geometry" />
        </mxCell>
        <mxCell id="5nNUs4AYX-94V2WKTNdS-2" value="&lt;div&gt;&lt;span style=&quot;font-size: 14px; text-wrap: nowrap;&quot;&gt;EmergencyContact&lt;/span&gt;&lt;/div&gt;&lt;div style=&quot;text-align: left;&quot;&gt;&lt;br&gt;&lt;/div&gt;&lt;div style=&quot;text-align: left;&quot;&gt;&lt;u&gt;&lt;br&gt;&lt;/u&gt;&lt;/div&gt;&lt;div style=&quot;text-align: left;&quot;&gt;&lt;u&gt;PhoneNumber&lt;/u&gt;&lt;br&gt;&lt;/div&gt;&lt;div style=&quot;text-align: left;&quot;&gt;&lt;font style=&quot;font-size: 12px;&quot;&gt;&lt;br&gt;&lt;/font&gt;&lt;/div&gt;&lt;div style=&quot;text-align: left;&quot;&gt;&lt;font style=&quot;font-size: 12px;&quot;&gt;Name&lt;/font&gt;&lt;/div&gt;&lt;div style=&quot;text-align: left;&quot;&gt;&lt;font style=&quot;font-size: 12px;&quot;&gt;&lt;br&gt;&lt;/font&gt;&lt;/div&gt;&lt;div style=&quot;text-align: left;&quot;&gt;&lt;font style=&quot;font-size: 12px;&quot;&gt;Relationship&lt;/font&gt;&lt;/div&gt;" style="shape=ext;margin=3;double=1;whiteSpace=wrap;html=1;align=center;" parent="mtRcYasuJqLh6qyS6TOP-43" vertex="1">
          <mxGeometry width="160" height="140" as="geometry" />
        </mxCell>
        <mxCell id="5nNUs4AYX-94V2WKTNdS-3" value="" style="line;strokeWidth=1;rotatable=1;dashed=0;labelPosition=right;align=left;verticalAlign=middle;spacingTop=0;spacingLeft=6;points=[];portConstraint=eastwest;container=1;movable=1;resizable=1;deletable=1;editable=1;locked=0;connectable=1;" parent="mtRcYasuJqLh6qyS6TOP-43" vertex="1">
          <mxGeometry y="40" width="160" height="10" as="geometry" />
        </mxCell>
        <mxCell id="mtRcYasuJqLh6qyS6TOP-46" style="edgeStyle=orthogonalEdgeStyle;rounded=0;orthogonalLoop=1;jettySize=auto;html=1;entryX=0.994;entryY=0.706;entryDx=0;entryDy=0;entryPerimeter=0;endArrow=none;endFill=0;" parent="1" source="5nNUs4AYX-94V2WKTNdS-4" target="2_08gkzJNAX3xdzMuyzV-338" edge="1">
          <mxGeometry relative="1" as="geometry">
            <mxPoint x="770" y="1060" as="targetPoint" />
          </mxGeometry>
        </mxCell>
        <mxCell id="5nNUs4AYX-94V2WKTNdS-4" value="Has Contact" style="shape=rhombus;double=1;perimeter=rhombusPerimeter;whiteSpace=wrap;html=1;align=center;" parent="1" vertex="1">
          <mxGeometry x="820" y="1030" width="110" height="60" as="geometry" />
        </mxCell>
        <mxCell id="5nNUs4AYX-94V2WKTNdS-6" style="edgeStyle=orthogonalEdgeStyle;rounded=0;orthogonalLoop=1;jettySize=auto;html=1;entryX=1;entryY=0.5;entryDx=0;entryDy=0;fontSize=12;endArrow=none;endFill=0;shape=link;" parent="1" source="5nNUs4AYX-94V2WKTNdS-2" target="5nNUs4AYX-94V2WKTNdS-4" edge="1">
          <mxGeometry relative="1" as="geometry" />
        </mxCell>
        <mxCell id="5nNUs4AYX-94V2WKTNdS-14" style="edgeStyle=orthogonalEdgeStyle;rounded=0;orthogonalLoop=1;jettySize=auto;html=1;fontSize=12;endArrow=none;endFill=0;shape=link;" parent="1" source="umVtSfNd9-hBFc_sN82X-36" target="umVtSfNd9-hBFc_sN82X-40" edge="1">
          <mxGeometry relative="1" as="geometry" />
        </mxCell>
        <mxCell id="5nNUs4AYX-94V2WKTNdS-15" style="edgeStyle=none;curved=1;rounded=0;orthogonalLoop=1;jettySize=auto;html=1;fontSize=12;startSize=8;endSize=8;entryX=0.001;entryY=0.117;entryDx=0;entryDy=0;entryPerimeter=0;" parent="1" source="umVtSfNd9-hBFc_sN82X-36" target="2_08gkzJNAX3xdzMuyzV-309" edge="1">
          <mxGeometry relative="1" as="geometry">
            <mxPoint x="330" y="1060" as="targetPoint" />
          </mxGeometry>
        </mxCell>
        <mxCell id="umVtSfNd9-hBFc_sN82X-36" value="Charges An" style="shape=rhombus;double=1;perimeter=rhombusPerimeter;whiteSpace=wrap;html=1;align=center;" parent="1" vertex="1">
          <mxGeometry x="160" y="1030" width="120" height="60" as="geometry" />
        </mxCell>
        <mxCell id="5nNUs4AYX-94V2WKTNdS-34" style="edgeStyle=orthogonalEdgeStyle;rounded=0;orthogonalLoop=1;jettySize=auto;html=1;fontSize=12;startSize=8;endSize=8;endArrow=none;endFill=0;entryX=1;entryY=0.5;entryDx=0;entryDy=0;" parent="1" source="2_08gkzJNAX3xdzMuyzV-330" target="2_08gkzJNAX3xdzMuyzV-358" edge="1">
          <mxGeometry relative="1" as="geometry">
            <mxPoint x="260" y="1712" as="targetPoint" />
            <Array as="points" />
          </mxGeometry>
        </mxCell>
        <mxCell id="5nNUs4AYX-94V2WKTNdS-36" style="edgeStyle=orthogonalEdgeStyle;rounded=0;orthogonalLoop=1;jettySize=auto;html=1;entryX=-0.021;entryY=0.448;entryDx=0;entryDy=0;entryPerimeter=0;fontSize=12;startSize=8;endSize=8;" parent="1" source="umVtSfNd9-hBFc_sN82X-28" target="2_08gkzJNAX3xdzMuyzV-315" edge="1">
          <mxGeometry relative="1" as="geometry" />
        </mxCell>
        <mxCell id="5nNUs4AYX-94V2WKTNdS-44" value="Re&lt;span style=&quot;white-space: pre;&quot;&gt;quiresA&lt;/span&gt;" style="shape=rhombus;double=1;perimeter=rhombusPerimeter;whiteSpace=wrap;html=1;align=center;" parent="1" vertex="1">
          <mxGeometry x="40" y="820" width="120" height="60" as="geometry" />
        </mxCell>
        <mxCell id="5nNUs4AYX-94V2WKTNdS-48" style="edgeStyle=none;curved=1;rounded=0;orthogonalLoop=1;jettySize=auto;html=1;entryX=0.008;entryY=0.6;entryDx=0;entryDy=0;entryPerimeter=0;fontSize=12;shape=link;" parent="1" source="5nNUs4AYX-94V2WKTNdS-44" target="umVtSfNd9-hBFc_sN82X-33" edge="1">
          <mxGeometry relative="1" as="geometry" />
        </mxCell>
        <mxCell id="mtRcYasuJqLh6qyS6TOP-37" style="edgeStyle=orthogonalEdgeStyle;rounded=0;orthogonalLoop=1;jettySize=auto;html=1;entryX=0.561;entryY=-0.003;entryDx=0;entryDy=0;entryPerimeter=0;endArrow=block;endFill=0;" parent="1" source="2_08gkzJNAX3xdzMuyzV-315" target="2_08gkzJNAX3xdzMuyzV-337" edge="1">
          <mxGeometry relative="1" as="geometry">
            <mxPoint x="690" y="950" as="targetPoint" />
            <Array as="points">
              <mxPoint x="690" y="890" />
              <mxPoint x="690" y="890" />
            </Array>
          </mxGeometry>
        </mxCell>
        <mxCell id="2_08gkzJNAX3xdzMuyzV-315" value="Donor" style="swimlane;fontStyle=0;childLayout=stackLayout;horizontal=1;startSize=26;horizontalStack=0;resizeParent=1;resizeParentMax=0;resizeLast=0;collapsible=1;marginBottom=0;align=center;fontSize=14;" parent="1" vertex="1">
          <mxGeometry x="670" y="812" width="160" height="56" as="geometry" />
        </mxCell>
        <mxCell id="2_08gkzJNAX3xdzMuyzV-316" value="IsAnonymous" style="text;strokeColor=none;fillColor=none;spacingLeft=4;spacingRight=4;overflow=hidden;rotatable=0;points=[[0,0.5],[1,0.5]];portConstraint=eastwest;fontSize=12;whiteSpace=wrap;html=1;" parent="2_08gkzJNAX3xdzMuyzV-315" vertex="1">
          <mxGeometry y="26" width="160" height="30" as="geometry" />
        </mxCell>
        <mxCell id="mtRcYasuJqLh6qyS6TOP-24" style="edgeStyle=orthogonalEdgeStyle;rounded=0;orthogonalLoop=1;jettySize=auto;html=1;entryX=1;entryY=0.5;entryDx=0;entryDy=0;endArrow=none;endFill=0;shape=link;" parent="1" source="mtRcYasuJqLh6qyS6TOP-22" edge="1">
          <mxGeometry relative="1" as="geometry">
            <mxPoint x="435" y="1405" as="targetPoint" />
          </mxGeometry>
        </mxCell>
        <mxCell id="mtRcYasuJqLh6qyS6TOP-22" value="WorksFor" style="shape=rhombus;double=1;perimeter=rhombusPerimeter;whiteSpace=wrap;html=1;align=center;" parent="1" vertex="1">
          <mxGeometry x="470" y="1375" width="120" height="60" as="geometry" />
        </mxCell>
        <mxCell id="mtRcYasuJqLh6qyS6TOP-26" style="edgeStyle=orthogonalEdgeStyle;rounded=0;orthogonalLoop=1;jettySize=auto;html=1;entryX=0.005;entryY=0.311;entryDx=0;entryDy=0;entryPerimeter=0;" parent="1" source="mtRcYasuJqLh6qyS6TOP-22" target="2_08gkzJNAX3xdzMuyzV-322" edge="1">
          <mxGeometry relative="1" as="geometry" />
        </mxCell>
        <mxCell id="mtRcYasuJqLh6qyS6TOP-45" value="" style="group" parent="1" vertex="1" connectable="0">
          <mxGeometry x="315" y="1350" width="125" height="130" as="geometry" />
        </mxCell>
        <mxCell id="mtRcYasuJqLh6qyS6TOP-15" value="&lt;div&gt;&lt;span style=&quot;font-size: 14px;&quot;&gt;HoursWorked&lt;/span&gt;&lt;/div&gt;&lt;div&gt;&lt;span style=&quot;font-size: 14px; text-wrap: nowrap;&quot;&gt;&lt;br&gt;&lt;/span&gt;&lt;/div&gt;&lt;div style=&quot;text-align: left;&quot;&gt;&lt;div&gt;&lt;u&gt;Month&lt;/u&gt;&lt;br&gt;&lt;/div&gt;&lt;div&gt;&lt;u&gt;&lt;br&gt;&lt;/u&gt;&lt;/div&gt;&lt;div&gt;&lt;u&gt;TeamName&lt;/u&gt;&lt;/div&gt;&lt;div&gt;&lt;br&gt;&lt;/div&gt;MonthlyHours&lt;/div&gt;" style="shape=ext;margin=3;double=1;whiteSpace=wrap;html=1;align=center;" parent="mtRcYasuJqLh6qyS6TOP-45" vertex="1">
          <mxGeometry width="125" height="130" as="geometry" />
        </mxCell>
        <mxCell id="mtRcYasuJqLh6qyS6TOP-16" value="" style="line;strokeWidth=1;rotatable=1;dashed=0;labelPosition=right;align=left;verticalAlign=middle;spacingTop=0;spacingLeft=6;points=[];portConstraint=eastwest;container=1;movable=1;resizable=1;deletable=1;editable=1;locked=0;connectable=1;" parent="mtRcYasuJqLh6qyS6TOP-45" vertex="1">
          <mxGeometry y="35" width="125" height="10" as="geometry" />
        </mxCell>
        <mxCell id="mtRcYasuJqLh6qyS6TOP-47" style="edgeStyle=orthogonalEdgeStyle;rounded=0;orthogonalLoop=1;jettySize=auto;html=1;entryX=0;entryY=0.805;entryDx=0;entryDy=0;entryPerimeter=0;endArrow=block;endFill=0;" parent="1" source="2_08gkzJNAX3xdzMuyzV-309" target="2_08gkzJNAX3xdzMuyzV-338" edge="1">
          <mxGeometry relative="1" as="geometry" />
        </mxCell>
        <mxCell id="mtRcYasuJqLh6qyS6TOP-57" value="" style="group" parent="1" vertex="1" connectable="0">
          <mxGeometry x="995" y="800" width="170" height="155" as="geometry" />
        </mxCell>
        <mxCell id="mtRcYasuJqLh6qyS6TOP-56" value="" style="rounded=0;whiteSpace=wrap;html=1;" parent="mtRcYasuJqLh6qyS6TOP-57" vertex="1">
          <mxGeometry width="170" height="155" as="geometry" />
        </mxCell>
        <mxCell id="mtRcYasuJqLh6qyS6TOP-54" value="ContactInfo" style="swimlane;fontStyle=0;childLayout=stackLayout;horizontal=1;startSize=26;horizontalStack=0;resizeParent=1;resizeParentMax=0;resizeLast=0;collapsible=1;marginBottom=0;align=center;fontSize=14;" parent="mtRcYasuJqLh6qyS6TOP-57" vertex="1">
          <mxGeometry x="5" y="10" width="160" height="135.31" as="geometry" />
        </mxCell>
        <mxCell id="mtRcYasuJqLh6qyS6TOP-55" value="&lt;u&gt;PhoneNumber&lt;/u&gt;&lt;div style=&quot;&quot;&gt;&lt;br&gt;EmailAddress&lt;/div&gt;&lt;div style=&quot;&quot;&gt;&lt;br&gt;&lt;/div&gt;&lt;div style=&quot;&quot;&gt;MailingAddress&lt;/div&gt;&lt;div style=&quot;&quot;&gt;&lt;br&gt;&lt;/div&gt;&lt;div style=&quot;&quot;&gt;IsOnMailingList&lt;/div&gt;" style="text;strokeColor=none;fillColor=none;spacingLeft=4;spacingRight=4;overflow=hidden;rotatable=0;points=[[0,0.5],[1,0.5]];portConstraint=eastwest;fontSize=12;whiteSpace=wrap;html=1;" parent="mtRcYasuJqLh6qyS6TOP-57" vertex="1">
          <mxGeometry x="5" y="34.875" width="160" height="110.4375" as="geometry" />
        </mxCell>
        <mxCell id="mtRcYasuJqLh6qyS6TOP-58" value="Has Information" style="shape=rhombus;double=1;perimeter=rhombusPerimeter;whiteSpace=wrap;html=1;align=center;" parent="1" vertex="1">
          <mxGeometry x="810" y="885" width="130" height="65" as="geometry" />
        </mxCell>
        <mxCell id="mtRcYasuJqLh6qyS6TOP-59" style="edgeStyle=orthogonalEdgeStyle;rounded=0;orthogonalLoop=1;jettySize=auto;html=1;endArrow=none;endFill=0;shape=link;" parent="1" source="mtRcYasuJqLh6qyS6TOP-58" edge="1">
          <mxGeometry relative="1" as="geometry">
            <mxPoint x="997" y="915" as="targetPoint" />
            <Array as="points">
              <mxPoint x="997" y="915" />
            </Array>
          </mxGeometry>
        </mxCell>
        <mxCell id="mtRcYasuJqLh6qyS6TOP-60" style="edgeStyle=orthogonalEdgeStyle;rounded=0;orthogonalLoop=1;jettySize=auto;html=1;entryX=1.012;entryY=0.157;entryDx=0;entryDy=0;entryPerimeter=0;" parent="1" source="mtRcYasuJqLh6qyS6TOP-58" target="2_08gkzJNAX3xdzMuyzV-338" edge="1">
          <mxGeometry relative="1" as="geometry" />
        </mxCell>
        <mxCell id="mtRcYasuJqLh6qyS6TOP-127" style="edgeStyle=orthogonalEdgeStyle;rounded=0;orthogonalLoop=1;jettySize=auto;html=1;" parent="1" source="5nNUs4AYX-94V2WKTNdS-39" edge="1">
          <mxGeometry relative="1" as="geometry">
            <mxPoint x="-90" y="820" as="targetPoint" />
          </mxGeometry>
        </mxCell>
        <mxCell id="5nNUs4AYX-94V2WKTNdS-39" value="&lt;div&gt;&lt;span style=&quot;font-size: 14px; text-wrap: nowrap;&quot;&gt;CheckPayment&lt;/span&gt;&lt;/div&gt;&lt;div style=&quot;text-align: left;&quot;&gt;&lt;div style=&quot;text-align: center;&quot;&gt;&lt;div style=&quot;text-align: left;&quot;&gt;&lt;u&gt;&lt;br&gt;&lt;/u&gt;&lt;/div&gt;&lt;div style=&quot;text-align: left;&quot;&gt;&lt;u&gt;CheckNumber&lt;/u&gt;&lt;/div&gt;&lt;/div&gt;&lt;/div&gt;" style="shape=ext;margin=3;double=1;whiteSpace=wrap;html=1;align=center;" parent="1" vertex="1">
          <mxGeometry x="-170" y="680" width="160" height="62.5" as="geometry" />
        </mxCell>
        <mxCell id="5nNUs4AYX-94V2WKTNdS-40" value="" style="line;strokeWidth=1;rotatable=1;dashed=0;labelPosition=right;align=left;verticalAlign=middle;spacingTop=0;spacingLeft=6;points=[];portConstraint=eastwest;container=1;movable=1;resizable=1;deletable=1;editable=1;locked=0;connectable=1;" parent="1" vertex="1">
          <mxGeometry x="-170" y="706.25" width="160" height="10" as="geometry" />
        </mxCell>
        <mxCell id="mtRcYasuJqLh6qyS6TOP-109" value="&lt;font style=&quot;font-size: 14px;&quot;&gt;Leads&lt;/font&gt;" style="shape=rhombus;perimeter=rhombusPerimeter;whiteSpace=wrap;html=1;align=center;" parent="1" vertex="1">
          <mxGeometry x="730" y="1520" width="80" height="60" as="geometry" />
        </mxCell>
        <mxCell id="mtRcYasuJqLh6qyS6TOP-110" style="edgeStyle=orthogonalEdgeStyle;rounded=0;orthogonalLoop=1;jettySize=auto;html=1;entryX=0.944;entryY=-0.011;entryDx=0;entryDy=0;entryPerimeter=0;endArrow=none;endFill=0;" parent="1" source="mtRcYasuJqLh6qyS6TOP-109" target="2_08gkzJNAX3xdzMuyzV-329" edge="1">
          <mxGeometry relative="1" as="geometry">
            <Array as="points">
              <mxPoint x="770" y="1643" />
            </Array>
          </mxGeometry>
        </mxCell>
        <mxCell id="mtRcYasuJqLh6qyS6TOP-112" style="edgeStyle=orthogonalEdgeStyle;rounded=0;orthogonalLoop=1;jettySize=auto;html=1;entryX=0.933;entryY=1.007;entryDx=0;entryDy=0;entryPerimeter=0;" parent="1" source="mtRcYasuJqLh6qyS6TOP-109" target="2_08gkzJNAX3xdzMuyzV-322" edge="1">
          <mxGeometry relative="1" as="geometry" />
        </mxCell>
        <mxCell id="mtRcYasuJqLh6qyS6TOP-114" style="edgeStyle=orthogonalEdgeStyle;rounded=0;orthogonalLoop=1;jettySize=auto;html=1;entryX=0.128;entryY=1.007;entryDx=0;entryDy=0;entryPerimeter=0;endArrow=none;endFill=0;" parent="1" source="2_08gkzJNAX3xdzMuyzV-350" target="2_08gkzJNAX3xdzMuyzV-322" edge="1">
          <mxGeometry relative="1" as="geometry" />
        </mxCell>
        <mxCell id="mtRcYasuJqLh6qyS6TOP-115" style="edgeStyle=orthogonalEdgeStyle;rounded=0;orthogonalLoop=1;jettySize=auto;html=1;entryX=-0.019;entryY=0.573;entryDx=0;entryDy=0;entryPerimeter=0;endArrow=none;endFill=0;shape=link;" parent="1" source="2_08gkzJNAX3xdzMuyzV-384" target="2_08gkzJNAX3xdzMuyzV-336" edge="1">
          <mxGeometry relative="1" as="geometry" />
        </mxCell>
        <mxCell id="mtRcYasuJqLh6qyS6TOP-116" style="edgeStyle=orthogonalEdgeStyle;rounded=0;orthogonalLoop=1;jettySize=auto;html=1;shape=link;entryX=1.001;entryY=0.778;entryDx=0;entryDy=0;entryPerimeter=0;" parent="1" source="2_08gkzJNAX3xdzMuyzV-384" target="mtRcYasuJqLh6qyS6TOP-31" edge="1">
          <mxGeometry relative="1" as="geometry">
            <mxPoint x="860" y="1670" as="targetPoint" />
          </mxGeometry>
        </mxCell>
        <mxCell id="mtRcYasuJqLh6qyS6TOP-121" style="edgeStyle=orthogonalEdgeStyle;rounded=0;orthogonalLoop=1;jettySize=auto;html=1;entryX=0.5;entryY=0;entryDx=0;entryDy=0;shape=link;" parent="1" source="mtRcYasuJqLh6qyS6TOP-118" target="mtRcYasuJqLh6qyS6TOP-120" edge="1">
          <mxGeometry relative="1" as="geometry" />
        </mxCell>
        <mxCell id="mtRcYasuJqLh6qyS6TOP-118" value="IsInsuredBy" style="shape=rhombus;double=1;perimeter=rhombusPerimeter;whiteSpace=wrap;html=1;align=center;" parent="1" vertex="1">
          <mxGeometry x="1030" y="1333" width="110" height="57" as="geometry" />
        </mxCell>
        <mxCell id="mtRcYasuJqLh6qyS6TOP-122" value="" style="group" parent="1" vertex="1" connectable="0">
          <mxGeometry x="1000" y="1420" width="170" height="160" as="geometry" />
        </mxCell>
        <mxCell id="mtRcYasuJqLh6qyS6TOP-120" value="" style="rounded=0;whiteSpace=wrap;html=1;" parent="mtRcYasuJqLh6qyS6TOP-122" vertex="1">
          <mxGeometry width="170" height="160" as="geometry" />
        </mxCell>
        <mxCell id="mtRcYasuJqLh6qyS6TOP-103" value="InsurancePolicy" style="swimlane;fontStyle=0;childLayout=stackLayout;horizontal=1;startSize=26;horizontalStack=0;resizeParent=1;resizeParentMax=0;resizeLast=0;collapsible=1;marginBottom=0;align=center;fontSize=14;" parent="mtRcYasuJqLh6qyS6TOP-122" vertex="1">
          <mxGeometry x="5" y="10" width="160" height="140" as="geometry" />
        </mxCell>
        <mxCell id="mtRcYasuJqLh6qyS6TOP-104" value="&lt;div&gt;&lt;u&gt;UniqueID&lt;/u&gt;&lt;/div&gt;&lt;div&gt;&lt;br&gt;&lt;/div&gt;ProviderName&lt;div&gt;&lt;br&gt;&lt;/div&gt;&lt;div&gt;&lt;span style=&quot;white-space: pre;&quot;&gt;ProviderAddress&lt;/span&gt;&lt;/div&gt;&lt;div&gt;&lt;span style=&quot;white-space: pre;&quot;&gt;&lt;br&gt;&lt;/span&gt;&lt;/div&gt;&lt;div&gt;&lt;span style=&quot;white-space: pre;&quot;&gt;Type&lt;/span&gt;&lt;/div&gt;" style="text;strokeColor=none;fillColor=none;spacingLeft=4;spacingRight=4;overflow=hidden;rotatable=0;points=[[0,0.5],[1,0.5]];portConstraint=eastwest;fontSize=12;whiteSpace=wrap;html=1;" parent="mtRcYasuJqLh6qyS6TOP-103" vertex="1">
          <mxGeometry y="26" width="160" height="114" as="geometry" />
        </mxCell>
        <mxCell id="mtRcYasuJqLh6qyS6TOP-128" style="edgeStyle=orthogonalEdgeStyle;rounded=0;orthogonalLoop=1;jettySize=auto;html=1;entryX=0;entryY=0.5;entryDx=0;entryDy=0;" parent="1" source="mtRcYasuJqLh6qyS6TOP-123" target="mtRcYasuJqLh6qyS6TOP-126" edge="1">
          <mxGeometry relative="1" as="geometry" />
        </mxCell>
        <mxCell id="mtRcYasuJqLh6qyS6TOP-123" value="&lt;div&gt;&lt;span style=&quot;font-size: 14px; text-wrap: nowrap;&quot;&gt;CardPayment&lt;/span&gt;&lt;/div&gt;&lt;div style=&quot;text-align: left;&quot;&gt;&lt;div style=&quot;text-align: center;&quot;&gt;&lt;div style=&quot;text-align: left;&quot;&gt;&lt;br&gt;&lt;/div&gt;&lt;div style=&quot;text-align: left;&quot;&gt;&lt;u&gt;CardNumber&lt;/u&gt;&lt;/div&gt;&lt;div style=&quot;text-align: left;&quot;&gt;&lt;br&gt;&lt;/div&gt;&lt;div style=&quot;text-align: left;&quot;&gt;CardType&lt;/div&gt;&lt;div style=&quot;text-align: left;&quot;&gt;&lt;br&gt;&lt;/div&gt;&lt;div style=&quot;text-align: left;&quot;&gt;CardExpDate&lt;/div&gt;&lt;/div&gt;&lt;/div&gt;" style="shape=ext;margin=3;double=1;whiteSpace=wrap;html=1;align=center;" parent="1" vertex="1">
          <mxGeometry x="-390" y="783.75" width="160" height="140" as="geometry" />
        </mxCell>
        <mxCell id="mtRcYasuJqLh6qyS6TOP-124" value="" style="line;strokeWidth=1;rotatable=1;dashed=0;labelPosition=right;align=left;verticalAlign=middle;spacingTop=0;spacingLeft=6;points=[];portConstraint=eastwest;container=1;movable=1;resizable=1;deletable=1;editable=1;locked=0;connectable=1;" parent="1" vertex="1">
          <mxGeometry x="-390" y="823.75" width="160" height="10" as="geometry" />
        </mxCell>
        <mxCell id="mtRcYasuJqLh6qyS6TOP-129" style="edgeStyle=orthogonalEdgeStyle;rounded=0;orthogonalLoop=1;jettySize=auto;html=1;entryX=0;entryY=0.5;entryDx=0;entryDy=0;shape=link;" parent="1" source="mtRcYasuJqLh6qyS6TOP-126" target="5nNUs4AYX-94V2WKTNdS-44" edge="1">
          <mxGeometry relative="1" as="geometry">
            <Array as="points">
              <mxPoint y="850" />
              <mxPoint y="850" />
            </Array>
          </mxGeometry>
        </mxCell>
        <mxCell id="mtRcYasuJqLh6qyS6TOP-126" value="&lt;div&gt;&lt;span style=&quot;font-size: 14px;&quot;&gt;PaymentMethod&lt;/span&gt;&lt;/div&gt;" style="shape=ext;margin=3;double=1;whiteSpace=wrap;html=1;align=center;" parent="1" vertex="1">
          <mxGeometry x="-170" y="822.5" width="160" height="62.5" as="geometry" />
        </mxCell>
        <mxCell id="mtRcYasuJqLh6qyS6TOP-131" style="edgeStyle=orthogonalEdgeStyle;rounded=0;orthogonalLoop=1;jettySize=auto;html=1;entryX=1;entryY=0.5;entryDx=0;entryDy=0;dashed=1;endArrow=none;endFill=0;" parent="1" source="mtRcYasuJqLh6qyS6TOP-130" target="2_08gkzJNAX3xdzMuyzV-384" edge="1">
          <mxGeometry relative="1" as="geometry" />
        </mxCell>
        <mxCell id="mtRcYasuJqLh6qyS6TOP-130" value="&lt;div style=&quot;font-size: 14px;&quot;&gt;&lt;div&gt;ClientIsActive&lt;/div&gt;&lt;/div&gt;" style="rounded=0;whiteSpace=wrap;html=1;" parent="1" vertex="1">
          <mxGeometry x="1030" y="1650" width="100" height="40" as="geometry" />
        </mxCell>
      </root>
    </mxGraphModel>
  </diagram>
</mxfile>
